<svg width="326" height="72" viewBox="0 0 326 72" fill="none" xmlns="http://www.w3.org/2000/svg">
<path d="M90.0058 19.304V25.88H76.2778V32.984H86.5498V39.368H76.2778V53H68.0698V19.304H90.0058ZM92.6878 39.56C92.6878 36.808 93.1998 34.392 94.2238 32.312C95.2798 30.232 96.7038 28.632 98.4958 27.512C100.288 26.392 102.288 25.832 104.496 25.832C106.384 25.832 108.032 26.216 109.44 26.984C110.88 27.752 111.984 28.76 112.752 30.008V26.216H120.96V53H112.752V49.208C111.952 50.456 110.832 51.464 109.392 52.232C107.984 53 106.336 53.384 104.448 53.384C102.272 53.384 100.288 52.824 98.4958 51.704C96.7038 50.552 95.2798 48.936 94.2238 46.856C93.1998 44.744 92.6878 42.312 92.6878 39.56ZM112.752 39.608C112.752 37.56 112.176 35.944 111.024 34.76C109.904 33.576 108.528 32.984 106.896 32.984C105.264 32.984 103.872 33.576 102.72 34.76C101.6 35.912 101.04 37.512 101.04 39.56C101.04 41.608 101.6 43.24 102.72 44.456C103.872 45.64 105.264 46.232 106.896 46.232C108.528 46.232 109.904 45.64 111.024 44.456C112.176 43.272 112.752 41.656 112.752 39.608ZM125.266 39.608C125.266 36.824 125.826 34.392 126.946 32.312C128.098 30.232 129.682 28.632 131.698 27.512C133.746 26.392 136.082 25.832 138.706 25.832C142.066 25.832 144.866 26.712 147.106 28.472C149.378 30.232 150.866 32.712 151.57 35.912H142.834C142.098 33.864 140.674 32.84 138.562 32.84C137.058 32.84 135.858 33.432 134.962 34.616C134.066 35.768 133.618 37.432 133.618 39.608C133.618 41.784 134.066 43.464 134.962 44.648C135.858 45.8 137.058 46.376 138.562 46.376C140.674 46.376 142.098 45.352 142.834 43.304H151.57C150.866 46.44 149.378 48.904 147.106 50.696C144.834 52.488 142.034 53.384 138.706 53.384C136.082 53.384 133.746 52.824 131.698 51.704C129.682 50.584 128.098 48.984 126.946 46.904C125.826 44.824 125.266 42.392 125.266 39.608ZM181.208 39.176C181.208 39.944 181.16 40.744 181.064 41.576H162.488C162.616 43.24 163.144 44.52 164.072 45.416C165.032 46.28 166.2 46.712 167.576 46.712C169.624 46.712 171.048 45.848 171.848 44.12H180.584C180.136 45.88 179.32 47.464 178.136 48.872C176.984 50.28 175.528 51.384 173.768 52.184C172.008 52.984 170.04 53.384 167.864 53.384C165.24 53.384 162.904 52.824 160.856 51.704C158.808 50.584 157.208 48.984 156.056 46.904C154.904 44.824 154.328 42.392 154.328 39.608C154.328 36.824 154.888 34.392 156.008 32.312C157.16 30.232 158.76 28.632 160.808 27.512C162.856 26.392 165.208 25.832 167.864 25.832C170.456 25.832 172.76 26.376 174.776 27.464C176.792 28.552 178.36 30.104 179.48 32.12C180.632 34.136 181.208 36.488 181.208 39.176ZM172.808 37.016C172.808 35.608 172.328 34.488 171.368 33.656C170.408 32.824 169.208 32.408 167.768 32.408C166.392 32.408 165.224 32.808 164.264 33.608C163.336 34.408 162.76 35.544 162.536 37.016H172.808ZM209.779 19.304V25.88H200.851V53H192.643V25.88H183.715V19.304H209.779ZM218.026 23.432C216.586 23.432 215.402 23.016 214.474 22.184C213.578 21.32 213.13 20.264 213.13 19.016C213.13 17.736 213.578 16.68 214.474 15.848C215.402 14.984 216.586 14.552 218.026 14.552C219.434 14.552 220.586 14.984 221.482 15.848C222.41 16.68 222.874 17.736 222.874 19.016C222.874 20.264 222.41 21.32 221.482 22.184C220.586 23.016 219.434 23.432 218.026 23.432ZM222.106 26.216V53H213.898V26.216H222.106ZM262.23 25.928C265.558 25.928 268.198 26.936 270.15 28.952C272.134 30.968 273.126 33.768 273.126 37.352V53H264.966V38.456C264.966 36.728 264.502 35.4 263.574 34.472C262.678 33.512 261.43 33.032 259.83 33.032C258.23 33.032 256.966 33.512 256.038 34.472C255.142 35.4 254.694 36.728 254.694 38.456V53H246.534V38.456C246.534 36.728 246.07 35.4 245.142 34.472C244.246 33.512 242.998 33.032 241.398 33.032C239.798 33.032 238.534 33.512 237.606 34.472C236.71 35.4 236.262 36.728 236.262 38.456V53H228.054V26.216H236.262V29.576C237.094 28.456 238.182 27.576 239.526 26.936C240.87 26.264 242.39 25.928 244.086 25.928C246.102 25.928 247.894 26.36 249.462 27.224C251.062 28.088 252.31 29.32 253.206 30.92C254.134 29.448 255.398 28.248 256.998 27.32C258.598 26.392 260.342 25.928 262.23 25.928ZM304.115 39.176C304.115 39.944 304.067 40.744 303.971 41.576H285.395C285.523 43.24 286.051 44.52 286.979 45.416C287.939 46.28 289.107 46.712 290.483 46.712C292.531 46.712 293.955 45.848 294.755 44.12H303.491C303.043 45.88 302.227 47.464 301.043 48.872C299.891 50.28 298.435 51.384 296.675 52.184C294.915 52.984 292.947 53.384 290.771 53.384C288.147 53.384 285.811 52.824 283.763 51.704C281.715 50.584 280.115 48.984 278.963 46.904C277.811 44.824 277.235 42.392 277.235 39.608C277.235 36.824 277.795 34.392 278.915 32.312C280.067 30.232 281.667 28.632 283.715 27.512C285.763 26.392 288.115 25.832 290.771 25.832C293.363 25.832 295.667 26.376 297.683 27.464C299.699 28.552 301.267 30.104 302.387 32.12C303.539 34.136 304.115 36.488 304.115 39.176ZM295.715 37.016C295.715 35.608 295.235 34.488 294.275 33.656C293.315 32.824 292.115 32.408 290.675 32.408C289.299 32.408 288.131 32.808 287.171 33.608C286.243 34.408 285.667 35.544 285.443 37.016H295.715ZM316.653 30.68C317.613 29.208 318.813 28.056 320.253 27.224C321.693 26.36 323.293 25.928 325.053 25.928V34.616H322.797C320.749 34.616 319.213 35.064 318.189 35.96C317.165 36.824 316.653 38.36 316.653 40.568V53H308.445V26.216H316.653V30.68Z" fill="#484848"/>
<circle cx="22.4434" cy="35.4434" r="22.4434" fill="url(#paint0_linear)"/>
<circle cx="15.5" cy="28.5" r="3.5" fill="white" fill-opacity="0.8"/>
<circle cx="22.5567" cy="36.5567" r="2.5567" fill="white"/>
<circle cx="29.5" cy="28.5" r="3.5" fill="white" fill-opacity="0.8"/>
<path d="M27.6859 45.1631L22.4359 38.6679L24.6859 37.3689L27.6859 45.1631Z" fill="white" fill-opacity="0.8"/>
<defs>
<linearGradient id="paint0_linear" x1="7.5" y1="18" x2="37" y2="53" gradientUnits="userSpaceOnUse">
<stop stop-color="#439AFF"/>
<stop offset="1" stop-color="#2B86F0"/>
</linearGradient>
</defs>
</svg>
